<?xml version="1.0" encoding="UTF-8"?>
<svg id="Calque_2" xmlns="http://www.w3.org/2000/svg" viewBox="0 0 1890.96 918.89">
  <defs>
    <style>
      .cls-1 {
        fill: #fbfcfd;
      }

      .cls-2 {
        fill: #487c36;
      }

      .cls-3 {
        fill: #f9fafd;
      }

      .cls-4 {
        fill: #385cb4;
      }

      .cls-5 {
        fill: #cc3f2b;
      }

      .cls-6 {
        fill: #487c35;
      }

      .cls-7 {
        fill: #fcfcfd;
      }

      .cls-8 {
        fill: #cb3f2c;
      }

      .cls-9 {
        fill: #385cb3;
      }

      .cls-10 {
        fill: #fcfdfe;
      }
    </style>
  </defs>
  <g id="Calque_1-2" data-name="Calque_1">
    <path class="cls-4" d="M804.85,713.37q1.05,0,2.13,0c2.35,0,4.69,0,7.04,0,1.71,0,3.42,0,5.13,0,4.71,0,9.42,0,14.13,0,5.12,0,10.24,0,15.36,0,10.16,0,20.32,0,30.48-.01,12.17,0,24.33,0,36.5-.01,28.71-.02,57.42-.02,86.13-.03,14.61,0,29.22,0,43.82-.01,46.86-.01,93.73-.02,140.59-.03,2.24,0,4.48,0,6.72,0,4.49,0,8.98,0,13.47,0,5.26,0,10.52,0,15.78,0,1.51,0,3.01,0,4.52,0,48.33,0,96.66-.02,144.99-.04,34.73-.02,69.46-.03,104.19-.04.71,0,1.43,0,2.17,0,15.69,0,31.37,0,47.06,0,5.61,0,11.23,0,16.84,0,1.4,0,2.79,0,4.19,0,22.24,0,44.47-.01,66.71-.03,23.03-.02,46.05-.02,69.08-.01,13.27,0,26.54,0,39.81-.02,8.87,0,17.74,0,26.6,0,5.05,0,10.1,0,15.15,0,4.6-.01,9.21,0,13.81,0,1.65,0,3.29,0,4.94,0,31.03-.15,57.97,9.75,80.53,31.2,20.99,21.84,28.24,48.63,27.96,78.23-.54,25.09-11.58,46.72-28.21,64.96-.58.67-1.17,1.33-1.77,2.02-16.08,17.38-40.95,27.27-64.23,28.98-5.55.15-11.09.14-16.64.13-1.71,0-3.41,0-5.12,0-4.7,0-9.4,0-14.09,0-5.11,0-10.22,0-15.33,0-10.14,0-20.27,0-30.41.01-12.14,0-24.28,0-36.42.01-28.64.02-57.28.02-85.93.03-14.57,0-29.15,0-43.72.01-46.76.01-93.52.02-140.28.03h-6.7c-4.48,0-8.96,0-13.44,0-5.25,0-10.49,0-15.74,0-1.5,0-3,0-4.5,0-48.22,0-96.44.02-144.66.04-34.65.02-69.31.03-103.96.04-.71,0-1.43,0-2.16,0-15.65,0-31.3,0-46.96,0-5.6,0-11.2,0-16.8,0-1.39,0-2.79,0-4.18,0-22.18,0-44.37.01-66.55.03-22.97.02-45.95.02-68.92.01-13.24,0-26.48,0-39.72.02-8.85,0-17.7,0-26.54,0-5.04,0-10.08,0-15.12,0-4.59.01-9.19,0-13.78,0-1.64,0-3.28,0-4.93,0-29.47.14-54.96-8.01-77.38-27.38q-1.14-.98-2.3-1.99c-17.82-16.67-29.19-42.11-30.04-66.36-.44-32.47,8.54-57.79,31.02-81.71,18.5-17.81,44.04-28.05,69.7-28.07Z"/>
    <path class="cls-9" d="M188.47,28.5v31c-3.69.39-7.38.78-11.19,1.19-37.5,4.34-70.53,18.48-97.81,44.81-.85.79-1.7,1.58-2.58,2.39-28.74,27.34-42.97,67.32-44.67,106.29-1.1,44.58,17.07,84.38,47.25,116.32,4.24,4.39,8.56,8.68,12.89,12.98,1.2,1.19,2.39,2.39,3.58,3.58,3.1,3.1,6.21,6.2,9.32,9.29,3.19,3.18,6.37,6.36,9.55,9.53,6.22,6.21,12.44,12.41,18.66,18.61,3.84-1.78,6.48-4.23,9.42-7.23.5-.51,1.01-1.02,1.53-1.54,1.6-1.62,3.2-3.24,4.8-4.86,1.09-1.1,2.18-2.2,3.27-3.3,2.67-2.69,5.32-5.38,7.98-8.08-5.1-6.25-10.78-11.85-16.51-17.5-1.79-1.76-3.57-3.53-5.35-5.29-5.06-5.02-10.13-10.04-15.21-15.04-3.12-3.07-6.23-6.16-9.34-9.24-1.17-1.16-2.35-2.32-3.53-3.47-10.08-9.87-19.32-20.57-25.37-33.45-.32-.66-.64-1.32-.97-2.01-14.08-29.76-16.25-64.14-5.23-95.24,6.52-16.76,16.08-30.86,28.51-43.76.58-.65,1.17-1.29,1.77-1.96,17.73-19.11,47.33-30.98,72.94-32.17,36.8-.96,67.48,8.99,94.69,34.6,4.8,4.57,9.48,9.28,14.15,13.98,1.15,1.15,2.3,2.3,3.45,3.45,2.98,2.98,5.96,5.97,8.94,8.96,3.06,3.07,6.11,6.13,9.17,9.19,5.97,5.98,11.93,11.96,17.9,17.95,5.65-4.7,10.87-9.73,16.06-14.94q1.32-1.32,2.66-2.66c2.39-2.39,4.78-4.78,7.16-7.18,2.5-2.51,5.01-5.01,7.51-7.52,4.73-4.74,9.46-9.48,14.19-14.22,5.39-5.4,10.78-10.8,16.17-16.19,11.08-11.09,22.16-22.19,33.24-33.29,4.14,1.9,6.97,4.71,10.15,7.92.61.61,1.21,1.21,1.83,1.83,2,2,3.98,4,5.97,6.01,1.38,1.39,2.77,2.77,4.15,4.16,3.64,3.65,7.28,7.3,10.91,10.96,3.71,3.73,7.43,7.46,11.14,11.18,7.29,7.31,14.57,14.62,21.84,21.94-1.52,3.57-3.62,5.86-6.36,8.58-.9.9-1.8,1.8-2.73,2.73-.98.97-1.97,1.95-2.95,2.92-1.01,1-2.01,2.01-3.02,3.01-2.64,2.63-5.29,5.26-7.94,7.89-2.7,2.68-5.4,5.37-8.1,8.06-5.29,5.27-10.59,10.54-15.9,15.8,4.23,5.05,8.64,9.77,13.31,14.41.71.71,1.43,1.42,2.16,2.16,2.38,2.37,4.76,4.74,7.14,7.11,1.71,1.71,3.42,3.41,5.13,5.12,3.68,3.67,7.35,7.33,11.03,10.99,5.81,5.79,11.62,11.59,17.43,17.38,1.99,1.99,3.98,3.97,5.97,5.96.5.5.99.99,1.51,1.5,5.65,5.64,11.3,11.28,16.95,16.91.52.51,1.03,1.03,1.56,1.56,8.38,8.35,16.75,16.7,25.13,25.05,8.61,8.58,17.22,17.17,25.82,25.76,5.3,5.29,10.61,10.58,15.92,15.87,4.07,4.05,8.13,8.1,12.19,12.16,1.67,1.66,3.33,3.32,5,4.98,2.28,2.26,4.55,4.53,6.81,6.8.66.65,1.33,1.31,2.01,1.98,4.45,4.49,8.31,9.03,8.41,15.67-.57,9.77-8.83,16.38-15.36,22.87-1.01,1.01-2.02,2.03-3.03,3.05-2.76,2.78-5.53,5.54-8.31,8.31-2.99,2.99-5.98,5.99-8.97,8.98-5.85,5.86-11.7,11.72-17.56,17.57-4.76,4.76-9.52,9.51-14.27,14.28-.68.68-1.35,1.36-2.05,2.05-1.38,1.38-2.75,2.75-4.13,4.13-12.9,12.91-25.8,25.81-38.71,38.7-11.81,11.8-23.61,23.61-35.4,35.43-12.11,12.14-24.23,24.27-36.36,36.39-6.81,6.8-13.61,13.61-20.41,20.42-5.78,5.8-11.57,11.59-17.37,17.37-2.96,2.95-5.91,5.9-8.86,8.87-2.7,2.71-5.41,5.41-8.12,8.11-.98.98-1.96,1.96-2.93,2.94q-10.4,10.51-18.26,11.48c-12.96-1.08-22.6-15.43-31.28-24.21-1.83-1.85-3.67-3.7-5.5-5.54-.55-.55-1.09-1.11-1.65-1.68-2.68-2.7-5.41-5.28-8.32-7.73-6.44-5.61-12.38-11.75-18.41-17.8-1.38-1.38-2.76-2.76-4.14-4.14-3.73-3.73-7.45-7.46-11.18-11.19-3.9-3.91-7.8-7.81-11.71-11.72-7.38-7.39-14.76-14.77-22.14-22.16-8.4-8.42-16.81-16.83-25.22-25.24-17.29-17.3-34.57-34.6-51.85-51.9-3.99,3.36-7.88,6.75-11.56,10.44-.82.82-1.64,1.64-2.49,2.49-.86.87-1.72,1.73-2.61,2.62-.9.9-1.8,1.8-2.73,2.73-2.37,2.38-4.74,4.75-7.11,7.13-2.43,2.44-4.85,4.87-7.28,7.3-4.75,4.76-9.49,9.52-14.23,14.28-4.22-1.64-7.03-4.76-10.15-7.92q-.91-.91-1.83-1.83c-2-2-3.98-4-5.97-6.01-1.38-1.39-2.77-2.77-4.15-4.16-3.64-3.65-7.28-7.3-10.91-10.96-3.71-3.73-7.43-7.46-11.14-11.18-7.29-7.31-14.57-14.62-21.84-21.94,1.51-3.53,3.55-5.8,6.27-8.49.88-.88,1.76-1.76,2.67-2.67.96-.95,1.92-1.9,2.89-2.85.98-.98,1.97-1.96,2.95-2.94,2.58-2.58,5.17-5.15,7.76-7.71,2.64-2.62,5.28-5.25,7.92-7.88,5.18-5.15,10.36-10.3,15.54-15.45-1.61-4.03-4.46-6.71-7.5-9.7q-.84-.84-1.7-1.69c-1.22-1.21-2.44-2.42-3.66-3.63-1.94-1.92-3.88-3.84-5.82-5.77-4.82-4.79-9.64-9.57-14.47-14.35-4.07-4.03-8.14-8.07-12.2-12.11-1.89-1.88-3.79-3.75-5.69-5.63-6.79-6.73-13.08-13.58-18.96-21.14-.95-1.19-1.91-2.39-2.86-3.58C7.29,292.51-4.61,240.67,1.59,191.69c6.79-48.06,31.85-93.48,70.51-123.23,34.07-25.62,73.59-39.95,116.36-39.95ZM134.47,152.5c-.99.74-1.98,1.49-3,2.25-16.33,13.94-26.44,36.93-28.18,57.98-.96,16.3,1.85,32.11,9.18,46.77l1.49,2.98c7.11,13.13,18.69,23.35,29.18,33.79,1.17,1.17,2.35,2.34,3.52,3.51,3.04,3.04,6.09,6.08,9.14,9.11,3.13,3.12,6.25,6.23,9.37,9.35,6.1,6.09,12.2,12.17,18.3,18.25,3.85-3.25,7.63-6.51,11.18-10.09.7-.7,1.4-1.41,2.12-2.13.7-.71,1.41-1.43,2.13-2.16.73-.74,1.46-1.47,2.22-2.23,1.78-1.8,3.57-3.59,5.35-5.39-1.52-3.61-3.65-5.87-6.43-8.59-.92-.91-1.84-1.81-2.78-2.74-.49-.48-.98-.96-1.49-1.45-1.55-1.51-3.09-3.04-4.63-4.56-4.38-4.33-8.77-8.65-13.17-12.96-2.7-2.64-5.38-5.29-8.06-7.95-1.01-1-2.03-2-3.06-3-8.02-7.81-15.46-16.12-18.76-27.06-.3-.94-.59-1.89-.9-2.86-3.87-15.03-1.9-30.26,5.42-43.91,8.37-13.2,19.88-20.99,34.85-24.92q3.56-.75,7-1,1.14-.09,2.3-.19c13.44-.62,27.74,3.54,38.1,12.21,10.43,9.57,20.36,19.64,30.34,29.67,1.87,1.88,3.74,3.75,5.62,5.63,4.55,4.56,9.09,9.12,13.63,13.68,3.62-1.7,5.94-3.71,8.77-6.57.89-.9,1.78-1.79,2.7-2.71.92-.94,1.84-1.87,2.79-2.84.94-.95,1.89-1.91,2.84-2.86,2.31-2.33,4.61-4.67,6.91-7.01-5.64-6.85-11.88-13.1-18.12-19.4-.58-.59-1.17-1.18-1.77-1.79-3.09-3.12-6.19-6.24-9.29-9.35-2.54-2.55-5.07-5.11-7.59-7.67-3.08-3.13-6.16-6.24-9.26-9.34-1.17-1.17-2.33-2.35-3.48-3.53-17.33-17.68-39.01-29.68-64.33-30.16-22.53-.09-42.68,6.8-60.15,21.24ZM424.95,139.8c-1.05,1.05-2.1,2.11-3.14,3.17q-.83.83-1.67,1.68c-1.77,1.78-3.53,3.56-5.29,5.35-1.19,1.2-2.39,2.41-3.59,3.61-2.93,2.96-5.86,5.92-8.79,8.89,4.24,5.07,8.67,9.8,13.38,14.44.64.64,1.28,1.27,1.94,1.93,1.56,1.55,3.12,3.09,4.68,4.63,6-4.96,11.46-10.35,16.94-15.88.87-.88,1.75-1.76,2.65-2.66,2.14-2.15,4.28-4.31,6.41-6.46-1.45-3.33-3.29-5.54-5.84-8.11-.75-.75-1.5-1.51-2.28-2.29-.79-.78-1.57-1.55-2.38-2.36-.79-.79-1.57-1.59-2.38-2.4-.75-.75-1.5-1.5-2.28-2.27-.69-.69-1.38-1.37-2.09-2.08-2.91-2.48-3.46-1.76-6.28.8ZM376.97,187.89c-1.1,1.1-2.19,2.2-3.28,3.3-.58.58-1.15,1.15-1.74,1.75-1.85,1.85-3.69,3.71-5.53,5.56-1.25,1.25-2.5,2.51-3.74,3.76-3.07,3.08-6.13,6.16-9.19,9.24,4.24,5.07,8.67,9.8,13.38,14.44.64.64,1.28,1.27,1.94,1.93,1.56,1.55,3.12,3.09,4.68,4.63,6.18-5.1,11.8-10.68,17.44-16.38.92-.93,1.84-1.85,2.79-2.81,2.26-2.27,4.51-4.54,6.77-6.82-4.23-5.05-8.64-9.8-13.31-14.44q-.95-.95-1.92-1.93c-.6-.6-1.2-1.2-1.82-1.82-.54-.54-1.09-1.08-1.65-1.64-2.36-2.13-2.28-1.2-4.8,1.21ZM184.47,209.5c-5.4,5.09-8.79,10.74-9.09,18.29.79,11.5,8.2,18.36,15.98,25.99,1.07,1.06,2.14,2.13,3.21,3.19,2.8,2.78,5.61,5.56,8.42,8.32,2.88,2.84,5.74,5.68,8.61,8.53,5.61,5.57,11.24,11.12,16.87,16.67,2.91-1.31,4.97-2.72,7.21-4.98q.9-.9,1.82-1.82c.64-.65,1.27-1.29,1.93-1.96.66-.66,1.32-1.33,2-2.01,2.1-2.11,4.2-4.24,6.3-6.36,1.43-1.44,2.85-2.87,4.28-4.31,3.49-3.52,6.98-7.04,10.47-10.57-1.52-3.56-3.61-5.87-6.32-8.61-.89-.91-1.79-1.82-2.71-2.75-.98-.98-1.96-1.97-2.94-2.95-1.01-1.02-2.02-2.03-3.03-3.05-2.12-2.13-4.24-4.25-6.36-6.37-2.71-2.71-5.4-5.43-8.09-8.15-2.08-2.1-4.17-4.2-6.26-6.29-1-1-1.99-2-2.98-3-11.15-11.31-25.03-19.55-39.3-7.82ZM420.8,230.05c-.73.73-1.46,1.46-2.21,2.21q-1.25,1.25-2.53,2.52c-.92.93-1.84,1.85-2.79,2.81-.98.98-1.95,1.95-2.93,2.93-2.66,2.66-5.31,5.32-7.96,7.98-2.77,2.78-5.54,5.55-8.32,8.32-5.25,5.26-10.51,10.52-15.76,15.78-5.98,5.99-11.96,11.97-17.93,17.96-12.3,12.31-24.6,24.63-36.9,36.95,1.29,2.82,2.63,4.88,4.82,7.07q.87.87,1.75,1.77t1.93,1.91c.68.68,1.35,1.35,2.05,2.05,2.27,2.27,4.55,4.54,6.82,6.8,1.63,1.63,3.25,3.25,4.88,4.88,4.42,4.42,8.84,8.83,13.27,13.24,4.62,4.61,9.24,9.23,13.86,13.84,7.75,7.75,15.51,15.49,23.27,23.23,7.99,7.97,15.98,15.95,23.97,23.93.49.49.98.98,1.49,1.49,2.47,2.47,4.94,4.93,7.41,7.4,20.49,20.47,40.98,40.93,61.48,61.38,3.37-1.46,5.58-3.33,8.16-5.92.82-.82,1.64-1.64,2.49-2.48.89-.9,1.79-1.8,2.7-2.73.96-.96,1.91-1.91,2.87-2.87,2.59-2.59,5.18-5.19,7.77-7.79,2.7-2.72,5.41-5.43,8.12-8.14,5.13-5.13,10.25-10.27,15.37-15.42,5.83-5.85,11.67-11.7,17.51-17.55,12.01-12.03,24.01-24.06,36-36.1-4.1-4.88-8.35-9.49-12.86-13.99-.67-.67-1.33-1.34-2.02-2.02-2.22-2.22-4.43-4.44-6.65-6.65-1.6-1.6-3.19-3.19-4.79-4.79-4.32-4.32-8.64-8.65-12.97-12.97-4.52-4.52-9.04-9.04-13.56-13.57-8.07-8.07-16.14-16.14-24.22-24.21-7.33-7.32-14.65-14.65-21.97-21.97-8.51-8.51-17.02-17.02-25.53-25.53-4.5-4.5-9.01-9.01-13.51-13.51-4.23-4.23-8.45-8.45-12.68-12.68-1.56-1.56-3.11-3.11-4.67-4.67-2.11-2.11-4.23-4.23-6.34-6.34-.62-.63-1.25-1.25-1.89-1.9q-3.22-4.2-7.01-2.66ZM328.33,236.52c-.92.92-1.83,1.84-2.78,2.79-.49.49-.97.98-1.48,1.48-1.56,1.57-3.12,3.14-4.68,4.71-1.06,1.06-2.11,2.12-3.17,3.18-2.59,2.6-5.18,5.21-7.77,7.82,1.46,3.36,3.31,5.55,5.91,8.11q1.14,1.13,2.3,2.29c.79.78,1.59,1.55,2.41,2.36.8.79,1.6,1.59,2.43,2.4,1.98,1.95,3.96,3.9,5.95,5.85,3.67-1.54,5.99-3.75,8.77-6.57.89-.9,1.78-1.79,2.7-2.71q1.38-1.41,2.79-2.84c.94-.95,1.89-1.91,2.84-2.86,2.31-2.33,4.61-4.67,6.91-7.01-4.23-5.05-8.64-9.8-13.31-14.44q-.95-.95-1.92-1.93c-.6-.6-1.2-1.2-1.82-1.82-.54-.54-1.09-1.08-1.65-1.64-2.2-1.98-2.14-1.33-4.44.85ZM283.01,281.71c-.56.57-1.13,1.14-1.71,1.72-.64.64-1.28,1.28-1.94,1.94-.69.7-1.38,1.4-2.09,2.12q-1.06,1.07-2.14,2.15c-2.27,2.28-4.53,4.56-6.79,6.85-1.53,1.54-3.06,3.08-4.6,4.62-3.76,3.79-7.52,7.58-11.28,11.38,1.58,3.32,3.28,5.52,5.91,8.11.76.75,1.52,1.51,2.3,2.29.79.78,1.59,1.55,2.41,2.36.8.79,1.6,1.59,2.43,2.4,1.98,1.95,3.96,3.9,5.95,5.85,2.91-1.31,4.97-2.72,7.21-4.98.6-.6,1.2-1.2,1.82-1.82q.95-.97,1.93-1.96c.66-.66,1.32-1.33,2-2.01,2.1-2.11,4.2-4.24,6.3-6.36,1.43-1.44,2.85-2.87,4.28-4.31,3.49-3.52,6.98-7.04,10.47-10.57-1.57-3.29-3.26-5.52-5.84-8.11-.75-.75-1.5-1.51-2.28-2.29-.79-.78-1.57-1.55-2.38-2.36-.79-.79-1.57-1.59-2.38-2.4-.75-.75-1.5-1.5-2.28-2.27-.69-.69-1.38-1.37-2.09-2.08-2.18-1.85-2.97-2.15-5.21-.28ZM226.22,338.52q-1.37,1.38-2.76,2.79c-.49.49-.97.98-1.47,1.48-1.55,1.56-3.1,3.14-4.65,4.71-1.05,1.06-2.1,2.12-3.15,3.18-2.58,2.6-5.15,5.21-7.72,7.82,4.24,5.07,8.67,9.8,13.38,14.44.64.64,1.28,1.27,1.94,1.93,1.56,1.55,3.12,3.09,4.68,4.63,5.44-4.53,10.46-9.34,15.44-14.38.73-.74,1.46-1.47,2.22-2.23,1.78-1.8,3.57-3.59,5.35-5.39-1.45-3.33-3.29-5.54-5.84-8.11-.75-.75-1.5-1.51-2.28-2.29-.79-.78-1.57-1.55-2.38-2.36-.79-.79-1.57-1.59-2.38-2.4-.75-.75-1.5-1.5-2.28-2.27-.69-.69-1.38-1.37-2.09-2.08-2.75-2.34-3.34-1.87-6,.52ZM297.67,353.05c-.73.73-1.46,1.46-2.21,2.21-.84.83-1.67,1.67-2.53,2.52q-1.38,1.39-2.78,2.81c-.98.98-1.95,1.95-2.93,2.93-2.66,2.65-5.3,5.32-7.95,7.98-2.77,2.78-5.54,5.55-8.31,8.32-5.25,5.26-10.49,10.52-15.74,15.78-5.97,5.99-11.94,11.97-17.91,17.96-12.29,12.31-24.57,24.63-36.85,36.95,1.34,2.77,2.58,4.83,4.76,7.01.55.56,1.11,1.12,1.68,1.69q.9.89,1.81,1.79c.62.62,1.24,1.24,1.88,1.88,1.32,1.31,2.64,2.63,3.96,3.94,2,1.98,3.99,3.97,5.98,5.96,1.29,1.28,2.57,2.56,3.86,3.84.59.59,1.17,1.17,1.78,1.77,2.82,2.79,5.67,5.47,8.7,8.03,6.05,5.28,11.66,11.03,17.33,16.71,1.27,1.27,2.54,2.54,3.82,3.82,3.43,3.43,6.86,6.87,10.29,10.31,3.59,3.6,7.19,7.19,10.78,10.79,6.8,6.8,13.59,13.6,20.39,20.41,7.74,7.75,15.48,15.5,23.22,23.25,15.92,15.93,31.83,31.86,47.75,47.8,5.76-4.78,11.05-9.92,16.33-15.22.91-.91,1.82-1.82,2.75-2.75,2.47-2.47,4.94-4.94,7.41-7.42,2.59-2.59,5.17-5.18,7.76-7.77,4.89-4.9,9.78-9.79,14.67-14.69,5.57-5.58,11.14-11.16,16.72-16.74,11.46-11.47,22.91-22.94,34.36-34.41-1.29-2.82-2.63-4.88-4.82-7.07-.58-.58-1.15-1.17-1.75-1.77-.63-.63-1.27-1.26-1.92-1.91-.67-.68-1.35-1.35-2.04-2.05-2.26-2.27-4.54-4.54-6.81-6.8-1.62-1.63-3.25-3.25-4.87-4.88-4.41-4.42-8.83-8.83-13.25-13.24-4.62-4.61-9.23-9.23-13.84-13.84-8.24-8.24-16.49-16.48-24.73-24.72-7.48-7.47-14.96-14.95-22.44-22.44-8.68-8.69-17.36-17.37-26.04-26.05-4.6-4.6-9.2-9.19-13.79-13.79-4.32-4.32-8.64-8.64-12.96-12.95-1.59-1.59-3.18-3.18-4.77-4.77-2.16-2.16-4.32-4.32-6.49-6.48-.63-.64-1.27-1.28-1.92-1.94q-3.79-4.48-8.36-2.75ZM180.97,383.89c-1.1,1.1-2.19,2.2-3.28,3.3-.58.58-1.15,1.15-1.74,1.75-1.85,1.85-3.69,3.71-5.53,5.56-1.25,1.25-2.5,2.51-3.74,3.76-3.07,3.08-6.13,6.16-9.19,9.24,1.46,3.36,3.31,5.55,5.91,8.11.76.75,1.52,1.51,2.3,2.29.79.78,1.59,1.55,2.41,2.36.8.79,1.6,1.59,2.43,2.4,1.98,1.95,3.96,3.9,5.95,5.85,4.01-1.6,6.68-4.42,9.64-7.45.53-.53,1.05-1.06,1.6-1.61,1.68-1.69,3.34-3.38,5.01-5.07,1.14-1.15,2.28-2.29,3.41-3.44,2.78-2.81,5.56-5.62,8.34-8.43-4.23-5.05-8.64-9.8-13.31-14.44q-.95-.95-1.92-1.93c-.6-.6-1.2-1.2-1.82-1.82-.54-.54-1.09-1.08-1.65-1.64-2.36-2.13-2.28-1.2-4.8,1.21ZM131.04,433.7c-1.01,1.01-2.01,2.03-3.02,3.05-.53.53-1.06,1.07-1.61,1.61-1.7,1.71-3.39,3.42-5.07,5.14-1.15,1.16-2.29,2.31-3.44,3.47-2.82,2.84-5.63,5.68-8.43,8.53,1.46,3.36,3.31,5.55,5.91,8.11.76.75,1.52,1.51,2.3,2.29.79.78,1.59,1.55,2.41,2.36.8.79,1.6,1.59,2.43,2.4,1.98,1.95,3.96,3.9,5.95,5.85,3.86-1.58,6.29-4.06,9.2-7.01.48-.49.97-.97,1.46-1.47,1.53-1.54,3.06-3.09,4.58-4.65,1.04-1.05,2.08-2.1,3.12-3.15,2.55-2.57,5.09-5.14,7.62-7.72-1.45-3.33-3.29-5.54-5.84-8.11-.75-.75-1.5-1.51-2.28-2.29-.79-.78-1.57-1.55-2.38-2.36-.79-.79-1.57-1.59-2.38-2.4-.75-.75-1.5-1.5-2.28-2.27-.69-.69-1.38-1.37-2.09-2.08-2.86-2.44-3.42-1.8-6.19.71Z"/>
    <path class="cls-4" d="M1327.47,193.5q147.71,0,162.5,4.12c.78.21,1.55.42,2.35.64,32.6,9.39,60.03,31.33,76.76,60.76,16.81,30.46,21.71,66.32,12.13,100.01-9.13,30.12-27.7,54.93-53.75,72.46.59,4.65,1.87,8.45,3.75,12.73q.42.98.86,1.98c.62,1.42,1.23,2.84,1.86,4.25,1.69,3.86,3.37,7.74,5.04,11.61.36.82.71,1.65,1.08,2.5,4.12,9.52,8.13,19.08,12.14,28.65.81,1.94,1.63,3.89,2.44,5.83,1.14,2.73,2.29,5.46,3.43,8.18q.52,1.24,1.05,2.5,2.36,5.66,2.36,6.78h-70q-14.95-33.34-21.31-48.31-3.31-7.77-6.69-15.69h-71v64h-65V193.5ZM1392.47,259.5v128q15.9.06,32.12.12,4.98.03,10.06.06c2.67,0,5.34.01,8.02.02.67,0,1.35.01,2.04.02,21.68.16,40.71-3.56,56.95-18.84,12.54-13.14,19.46-30.24,19.07-48.42-1.59-18.45-9.23-34.86-23.45-46.89-11.95-8.81-24.17-14.21-39.19-14.18q-1.09,0-2.19,0c-2.33,0-4.65,0-6.98.02-1.44,0-2.89,0-4.33,0-5.33,0-10.66.02-15.99.03q-17.88.03-36.12.06Z"/>
    <path class="cls-4" d="M1219.47,225.5c.63.51,1.27,1.02,1.92,1.55,24.84,20.39,38.49,52.93,41.88,84.2.64,7.5.45,15.07.42,22.59,0,2,0,4,0,6.01,0,5.39-.01,10.78-.03,16.17-.01,5.65-.01,11.3-.02,16.95,0,10.68-.02,21.35-.04,32.03-.02,12.16-.03,24.33-.04,36.49-.02,25-.06,50.01-.1,75.01h-66v-64h-127v64h-66c-.05-25.49-.08-50.98-.1-76.46-.01-11.84-.02-23.67-.05-35.51-.02-10.32-.03-20.65-.04-30.97,0-5.46,0-10.92-.02-16.38-.01-5.15-.02-10.31-.01-15.46,0-1.88,0-3.75-.01-5.63-.06-15.52.21-31.51,4.55-46.52.22-.79.44-1.58.67-2.39,1.85-6.46,4.09-12.62,7.02-18.67.3-.64.61-1.27.92-1.93,15.07-31.19,40.92-53.88,73.33-65.88,45.17-15.16,92.48-5.78,128.75,24.81ZM1086.47,280.5q-.91.88-1.83,1.77c-12.48,13.01-14.63,30.62-14.46,47.71,0,1.48,0,2.96,0,4.43.02,5.42.06,10.85.1,16.27.06,12.15.12,24.3.19,36.81h127c.1-12.04.21-24.09.31-36.5q.07-5.65.14-11.42.02-3.45.03-6.9c0-1.51.02-3.02.05-4.53.31-19.35-4.77-35.03-18.26-49.34-.75-.76-1.5-1.53-2.27-2.31-.61-.64-1.23-1.28-1.86-1.94-11.97-11.48-27.99-15.58-44.14-15.41-18.37.54-32.46,8.5-45,21.35Z"/>
    <path class="cls-4" d="M1848.47,226.5c23.78,21.21,39.5,51.72,42.22,83.59.33,6.29.28,12.57.23,18.87,0,2.06,0,4.12,0,6.19,0,5.53-.02,11.06-.05,16.59-.03,5.8-.03,11.61-.03,17.41-.01,10.96-.05,21.92-.09,32.88-.04,12.49-.07,24.98-.09,37.47-.04,25.67-.11,51.33-.2,77h-65v-64h-128v64h-65c-.07-26.55-.12-53.1-.16-79.64-.02-12.33-.04-24.66-.07-36.98-.03-10.75-.05-21.5-.06-32.26,0-5.69-.01-11.37-.03-17.06-.02-5.37-.03-10.73-.02-16.1,0-1.96,0-3.91-.02-5.87-.21-37.05,11.63-68.33,36.36-96.09.59-.67,1.19-1.34,1.8-2.02,46.97-49.65,128.57-47.17,178.2-3.98ZM1712.47,281.5c-5.9,7.48-10.59,15.74-13,25-.17.62-.33,1.25-.5,1.89-1.92,8.17-1.75,16.29-1.69,24.62,0,1.4,0,2.8,0,4.2.01,5.14.04,10.28.06,15.42.04,11.51.08,23.02.12,34.88h128c.08-11.38.17-22.77.25-34.5.04-3.56.07-7.12.11-10.79q.01-3.26.02-6.53c0-1.43.02-2.85.04-4.28.29-21.44-5.66-39.05-20.37-55.02-12.28-12.02-29.32-17.43-46.2-17.3-18.25.6-34.87,8.66-46.86,22.42Z"/>
    <path class="cls-4" d="M704.47,193.5q147.71,0,162.5,4.12c.78.21,1.55.42,2.35.64,17.97,5.18,35.44,14.18,48.99,27.17,1.96,1.88,3.98,3.55,6.09,5.25,21.5,18.81,35.61,50.58,38.06,78.81,2.12,38.93-8.06,72.45-34,102-22.05,24.37-54.38,39.02-87,41-5.61.13-11.21.12-16.82.1-1.6,0-3.2,0-4.8,0-4.17,0-8.34-.01-12.51-.02-5.02-.01-10.05-.02-15.07-.02-7.6,0-15.2-.03-22.8-.05v64h-65V193.5ZM769.47,259.5v128q15.9.06,32.12.12,4.98.03,10.06.06c2.67,0,5.34.01,8.02.02.67,0,1.35.01,2.04.02,20.38.15,37.85-2.73,53.76-16.21.72-.6,1.43-1.21,2.17-1.83,12.23-11.26,18.75-27.41,20.03-43.77.32-17.08-5.94-33.33-17.09-46.23-11.66-11.98-27.15-20.03-44.05-20.49-3.73-.04-7.47-.01-11.2.02-1.44,0-2.87,0-4.31,0-5.27.02-10.53.06-15.8.1q-17.7.09-35.75.19Z"/>
    <path class="cls-6" d="M445.4,206.72c2.37.89,3.56,1.9,5.35,3.68q.94.93,1.91,1.88c.68.69,1.37,1.38,2.07,2.09.73.73,1.46,1.46,2.22,2.2,2.46,2.45,4.91,4.91,7.36,7.37,1.76,1.75,3.52,3.51,5.28,5.26,4.29,4.28,8.57,8.56,12.85,12.85,3.48,3.48,6.96,6.97,10.44,10.44.5.49.99.99,1.5,1.5,1.01,1.01,2.01,2.01,3.02,3.02,9.44,9.43,18.87,18.88,28.3,28.32,8.09,8.1,16.19,16.2,24.29,24.29,9.41,9.39,18.81,18.79,28.21,28.19,1,1,2,2.01,3.01,3.01.49.49.99.99,1.49,1.5,3.47,3.48,6.95,6.95,10.43,10.42,4.68,4.68,9.36,9.36,14.03,14.05,1.72,1.72,3.44,3.44,5.16,5.15,2.35,2.34,4.69,4.69,7.02,7.04.69.68,1.37,1.36,2.08,2.06,4.5,4.55,8.45,9.1,8.55,15.83-.57,9.77-8.83,16.38-15.36,22.87-1.01,1.01-2.02,2.03-3.03,3.05-2.76,2.78-5.53,5.54-8.31,8.31-2.99,2.99-5.98,5.99-8.97,8.98-5.85,5.86-11.7,11.72-17.56,17.57-4.76,4.76-9.52,9.51-14.27,14.28-.68.68-1.35,1.36-2.05,2.05-1.38,1.38-2.75,2.75-4.13,4.13-12.9,12.91-25.8,25.81-38.71,38.7-11.81,11.8-23.61,23.61-35.4,35.43-12.11,12.14-24.23,24.27-36.36,36.39-6.81,6.8-13.61,13.61-20.41,20.42-5.78,5.8-11.57,11.59-17.37,17.37-2.96,2.95-5.91,5.9-8.86,8.87-2.7,2.71-5.41,5.41-8.12,8.11-.98.98-1.96,1.96-2.93,2.94q-10.4,10.51-18.26,11.48c-12.96-1.08-22.6-15.43-31.28-24.21-1.83-1.85-3.67-3.7-5.5-5.54-.55-.55-1.09-1.11-1.65-1.68-2.68-2.7-5.41-5.27-8.31-7.73-6.47-5.64-12.45-11.81-18.51-17.89-1.39-1.39-2.78-2.78-4.17-4.17-3.76-3.76-7.51-7.51-11.26-11.27-3.93-3.93-7.86-7.87-11.79-11.8-7.44-7.44-14.87-14.88-22.3-22.32-8.46-8.48-16.93-16.95-25.4-25.42-17.41-17.42-34.82-34.85-52.22-52.27.96-1.12,1.91-2.24,2.87-3.36q.8-.94,1.62-1.89c1.72-1.98,3.52-3.86,5.38-5.71.66-.65,1.31-1.31,1.99-1.98.67-.66,1.33-1.31,2.02-1.99.69-.68,1.38-1.37,2.09-2.07,1.68-1.67,3.36-3.33,5.04-4.99,2.8,1.28,4.83,2.59,6.99,4.78.55.56,1.11,1.12,1.68,1.69.59.6,1.18,1.2,1.78,1.82.62.62,1.24,1.25,1.88,1.89,1.98,2,3.95,4,5.92,6,1.96,1.99,3.92,3.97,5.88,5.95,1.22,1.23,2.43,2.46,3.65,3.7,2.79,2.82,5.62,5.53,8.65,8.09,6.06,5.28,11.66,11.03,17.33,16.71,1.27,1.27,2.54,2.54,3.82,3.82,3.43,3.43,6.86,6.87,10.29,10.31,3.59,3.6,7.19,7.19,10.78,10.79,6.8,6.8,13.59,13.6,20.39,20.41,7.74,7.75,15.48,15.5,23.22,23.25,15.92,15.93,31.83,31.86,47.75,47.8,5.72-4.76,10.99-9.86,16.24-15.13.9-.9,1.8-1.8,2.72-2.72,2.44-2.44,4.88-4.89,7.32-7.34,2.56-2.56,5.12-5.13,7.68-7.69,4.84-4.84,9.68-9.69,14.51-14.53,5.51-5.52,11.02-11.04,16.53-16.56,11.33-11.34,22.66-22.69,33.99-34.04-1.29-2.82-2.63-4.88-4.82-7.07-.58-.58-1.16-1.17-1.75-1.77-.64-.63-1.27-1.26-1.93-1.91-.68-.68-1.35-1.35-2.05-2.05-2.27-2.27-4.55-4.54-6.82-6.8-1.63-1.63-3.25-3.25-4.88-4.88-4.42-4.42-8.84-8.83-13.27-13.24-4.62-4.61-9.24-9.23-13.86-13.84-7.75-7.75-15.51-15.49-23.27-23.23-7.99-7.97-15.98-15.95-23.97-23.93-.49-.49-.98-.98-1.49-1.49-2.47-2.47-4.94-4.93-7.41-7.4-20.49-20.47-40.98-40.93-61.48-61.38,1.66-3.52,3.57-5.8,6.35-8.55.85-.84,1.7-1.69,2.58-2.56.89-.87,1.78-1.75,2.7-2.64.9-.89,1.79-1.78,2.72-2.69,2.21-2.19,4.43-4.38,6.66-6.56,2.82,1.29,4.88,2.63,7.07,4.82.58.58,1.17,1.16,1.77,1.75.63.64,1.26,1.27,1.91,1.93.68.68,1.35,1.35,2.05,2.05,2.27,2.27,4.54,4.55,6.8,6.82,1.63,1.63,3.25,3.25,4.88,4.88,4.42,4.42,8.83,8.84,13.24,13.27,4.61,4.62,9.23,9.24,13.84,13.86,7.75,7.75,15.49,15.51,23.23,23.27,7.97,7.99,15.95,15.98,23.93,23.97.49.49.98.98,1.49,1.49,2.47,2.47,4.93,4.94,7.4,7.41,20.47,20.49,40.93,40.98,61.38,61.48,3.35-1.46,5.55-3.3,8.13-5.89.81-.81,1.63-1.62,2.46-2.46.88-.89,1.77-1.78,2.68-2.7.95-.95,1.89-1.89,2.84-2.84,2.57-2.57,5.13-5.14,7.68-7.71,2.68-2.69,5.36-5.37,8.04-8.06,5.08-5.08,10.15-10.17,15.21-15.26,5.77-5.79,11.55-11.58,17.33-17.37,11.88-11.9,23.76-23.81,35.63-35.73-4.06-4.88-8.33-9.46-12.84-13.93-.66-.66-1.33-1.32-2.01-2-2.21-2.2-4.42-4.39-6.63-6.58-1.59-1.58-3.18-3.16-4.77-4.74-3.41-3.4-6.82-6.79-10.24-10.18-5.39-5.36-10.78-10.73-16.17-16.1q-1.36-1.36-2.76-2.75c-1.86-1.85-3.72-3.71-5.58-5.56-4.77-4.75-9.54-9.5-14.31-14.26-.48-.48-.96-.95-1.45-1.44-7.77-7.74-15.55-15.47-23.33-23.2-7.99-7.94-15.98-15.89-23.95-23.85-4.48-4.47-8.96-8.93-13.45-13.38-4.22-4.18-8.42-8.37-12.62-12.57-1.55-1.54-3.1-3.08-4.65-4.61-2.11-2.09-4.21-4.19-6.31-6.29-.63-.61-1.25-1.22-1.89-1.85q-1.68-1.71-4.06-4.7c.7-5.96,6.29-9.8,10.31-13.81.87-.9,1.74-1.79,2.63-2.72.84-.84,1.68-1.68,2.54-2.55q1.15-1.16,2.33-2.35,2.18-1.57,4.11-1.35Z"/>
    <path class="cls-5" d="M266.47,125.5c8.64,7.48,16.71,15.57,24.77,23.67,1.17,1.17,2.34,2.35,3.51,3.52,3.04,3.04,6.08,6.09,9.11,9.14,3.12,3.13,6.23,6.25,9.35,9.37,6.09,6.1,12.17,12.2,18.25,18.3-4.39,5.17-8.88,10.16-13.62,15q-.98,1.04-1.98,2.1c-.64.65-1.27,1.3-1.93,1.96q-.85.88-1.73,1.79-1.74,1.15-3.49,1.06c-3.32-1.34-5.45-3.77-7.89-6.3-.55-.56-1.11-1.12-1.68-1.7-1.2-1.22-2.4-2.44-3.6-3.67-1.9-1.95-3.82-3.89-5.73-5.83-5.45-5.51-10.88-11.04-16.3-16.58-3.32-3.39-6.65-6.77-9.99-10.14-1.26-1.28-2.52-2.56-3.77-3.85-17.61-18.12-39.19-30.59-65.13-31.09-22.53-.09-42.68,6.8-60.15,21.24-.82.63-1.64,1.26-2.49,1.91-15.62,13.02-25.31,35.29-27.51,55.09-1.41,17.02,1.33,33.66,9,49l1.49,2.98c6.71,12.4,17.35,22.02,27.34,31.8,2.3,2.26,4.59,4.53,6.89,6.8,4.24,4.2,8.49,8.39,12.75,12.57,2.99,2.93,5.97,5.88,8.95,8.83,1.13,1.12,2.26,2.23,3.4,3.34,1.58,1.54,3.14,3.09,4.7,4.65.89.88,1.79,1.76,2.71,2.66q1.78,2.37,1.68,4.55c-1.34,2.71-3.22,4.48-5.37,6.59-.9.89-1.8,1.78-2.72,2.7-.95.92-1.89,1.84-2.87,2.79-.96.94-1.92,1.89-2.88,2.84-2.35,2.31-4.7,4.62-7.06,6.91-6.93-5.69-13.23-12.02-19.58-18.34-.6-.59-1.2-1.19-1.81-1.8-3.17-3.15-6.34-6.31-9.51-9.46-3.24-3.22-6.48-6.44-9.73-9.65-2.53-2.5-5.05-5.01-7.56-7.53-1.19-1.19-2.39-2.37-3.58-3.55-10.11-9.96-19.43-20.7-25.53-33.67-.32-.66-.64-1.32-.97-2.01-14.08-29.76-16.25-64.14-5.23-95.24,6.52-16.76,16.08-30.86,28.51-43.76.58-.65,1.17-1.29,1.77-1.96,39.77-42.88,113.18-41.46,157.23-7.04Z"/>
    <path d="M1185.47,2.5h30c.02,3.22.04,6.43.06,9.74.07,10.62.14,21.23.23,31.85.05,6.44.1,12.88.13,19.31.04,6.21.08,12.42.14,18.63.02,2.37.03,4.74.05,7.11.02,3.32.05,6.64.08,9.95,0,.98,0,1.97,0,2.98q.03,6.45,2.31,12.41c3.85,2.26,8.55,3.07,13,3,4.21-1.51,6.71-3.15,9-7,.93-2.78,1.13-4.48,1.16-7.35q.01-1.33.03-2.69c0-.97.01-1.94.02-2.94,0-1.02.02-2.05.03-3.1.03-3.39.06-6.79.08-10.18.02-2.35.04-4.7.06-7.05.06-6.19.1-12.38.15-18.57.05-6.31.11-12.63.16-18.94.11-12.39.21-24.79.31-37.18h30q.03,4.82.06,9.74c.07,10.62.14,21.23.23,31.85.05,6.44.1,12.88.13,19.31.04,6.21.08,12.42.14,18.63.02,2.37.03,4.74.05,7.11.02,3.32.05,6.64.08,9.95,0,.98,0,1.97,0,2.98q.03,6.45,2.31,12.41c3.86,2.27,8.54,3.05,13,3,5.26-1.72,7.45-4.16,10-9,.58-3.47.56-6.9.55-10.41q.02-1.55.03-3.14c.03-3.41.03-6.82.03-10.23.01-2.37.03-4.74.05-7.1.04-6.22.06-12.45.08-18.67.02-6.35.06-12.71.1-19.06.08-12.46.12-24.92.16-37.39h30c.05,13.35.08,26.71.1,40.06.01,6.2.02,12.4.05,18.6.02,5.99.03,11.98.04,17.97,0,2.28.01,4.56.02,6.84q.16,35.75-12.21,49.34c-10.15,9.5-22.02,12.69-35.59,12.47-7.58-.33-14.36-2.47-20.35-7.16q-2.8-2.47-5.56-1.69-1.24.77-2.5,1.56c-11.68,6.96-22.47,8.56-35.93,6.57-11.15-2.87-20.66-10.2-26.53-20.02-4.64-8.79-5.83-16.65-5.76-26.46,0-1.06,0-2.13,0-3.23,0-3.5.02-6.99.03-10.49,0-2.43,0-4.86,0-7.3,0-6.39.03-12.77.05-19.16.02-6.52.03-13.04.04-19.57.02-12.79.06-25.57.1-38.36Z"/>
    <path d="M1467.28,13.45c2.49,1.93,4.85,3.94,7.19,6.05.71.63,1.42,1.25,2.14,1.9,13.32,12.48,21.05,31.02,22.02,49.11.35,13.49-2.2,25.87-8.16,37.99-.47.97-.94,1.95-1.42,2.95-9.13,17.26-25.2,28.65-43.35,35.02-19.92,5.62-40.94,2.5-59-7.05-4.83-2.87-9.06-6.15-13.22-9.92-.71-.63-1.42-1.25-2.14-1.9-12.66-11.86-20.81-29.79-21.86-47.1-.05-.86-.11-1.71-.16-2.6-.66-21.39,7.18-40.51,21.79-56.06,25.81-25.55,66.26-29.13,96.18-8.39ZM1388.47,46.5c-8.31,10.96-10.16,22.57-9,36,2.44,12.44,9.75,22.67,20,30,10.25,5.82,21.48,8.85,33.17,6.31,15.18-4.28,24.5-11.75,32.35-25.25,4.88-10.09,5.47-23.47,1.86-34.12-2.21-5.06-4.98-9.59-8.38-13.94-.48-.62-.96-1.23-1.45-1.87-7.51-8.51-19.6-13.24-30.68-14.34-15.14-.7-27.79,6.44-37.88,17.21Z"/>
    <path d="M1520.47,2.5q81.01,0,98.68,16.59c10.66,11.07,16.23,24.98,16.35,40.3-.23,8.52-1.63,16.24-5.03,24.11-.39.91-.78,1.82-1.18,2.76-3.76,7.77-10.89,17.27-18.82,21.24.6,4.8,2.03,8.93,3.94,13.33.29.68.57,1.35.87,2.05.91,2.15,1.83,4.29,2.75,6.43.92,2.16,1.84,4.32,2.76,6.48.57,1.34,1.14,2.68,1.72,4.02q1.96,4.58,1.96,5.69h-32c-3.96-8.91-7.92-17.82-12-27-10.23-.33-20.46-.66-31-1v28h-29V2.5ZM1549.47,31.5v56c5.44.06,10.89.12,16.5.19,1.7.03,3.4.05,5.16.08,1.37,0,2.75.02,4.12.02q1.04.02,2.1.05c8.65,0,14.87-3.29,21.13-9.14,5.55-6.14,7.35-13.12,7.27-21.21-.7-7.46-3.97-13.79-9.28-18.98-7.04-5.33-13.81-7.27-22.68-7.2-1.28,0-2.56,0-3.88.02q-2.41.03-4.87.06c-5.14.04-10.27.08-15.56.12Z"/>
    <path d="M1775.47,2.5q73.07,0,96.06,21.62c15.19,15.64,19.48,34.37,19.21,55.48-.51,15.75-6.89,30.14-17.28,41.89-.72.82-1.44,1.65-2.18,2.5-11.06,11.89-25.17,18.03-40.82,21.5h-55V2.5ZM1805.47,31.5v85q24.05.03,43.29-12.11c8.74-9.25,13.32-20.19,13.02-32.9-1.32-12.77-7.26-23.37-17.14-31.46-12.79-9.05-23.11-8.53-39.16-8.53Z"/>
    <path class="cls-6" d="M196.77,172.31c13.43-.62,27.73,3.53,38.09,12.19,10.12,9.28,19.76,19.04,29.44,28.76,2.39,2.4,4.79,4.8,7.18,7.2,4.67,4.68,9.33,9.36,13.99,14.04-1.66,3.52-3.57,5.8-6.35,8.55-.85.84-1.7,1.69-2.58,2.56-.89.87-1.78,1.75-2.7,2.64-.9.89-1.79,1.78-2.72,2.69-2.21,2.19-4.43,4.38-6.66,6.56-3.59-1.52-5.84-3.62-8.55-6.39-.89-.91-1.79-1.82-2.71-2.75-.47-.49-.95-.97-1.44-1.47-1.49-1.53-2.99-3.05-4.49-4.57-4.27-4.32-8.52-8.64-12.77-12.98-2.6-2.66-5.21-5.3-7.83-7.94-.99-1-1.98-2.01-2.96-3.02-7.12-7.32-13.49-13.5-24.24-13.88-7.42.85-12.36,3.36-17.69,8.69-4.4,5.67-5.81,11.82-5.03,18.88,2.74,9.32,8.86,15.11,15.61,21.71,1.07,1.06,2.14,2.13,3.21,3.19,2.8,2.78,5.61,5.56,8.42,8.32,2.88,2.84,5.74,5.68,8.61,8.53,5.61,5.57,11.24,11.12,16.87,16.67-1.66,3.52-3.57,5.8-6.35,8.55-.85.84-1.7,1.69-2.58,2.56-.89.87-1.78,1.75-2.7,2.64-.9.89-1.79,1.78-2.72,2.69-2.21,2.19-4.43,4.38-6.66,6.56-3.62-1.53-5.97-3.7-8.75-6.46-.94-.93-1.88-1.85-2.84-2.8-1.02-1.01-2.04-2.03-3.05-3.05-1.05-1.05-2.11-2.09-3.16-3.14-2.21-2.2-4.42-4.4-6.62-6.6-2.8-2.8-5.61-5.59-8.43-8.37-2.18-2.16-4.36-4.33-6.53-6.5-1.03-1.03-2.07-2.06-3.11-3.08-8.01-7.9-15.57-16.31-18.88-27.3-.3-.94-.59-1.89-.9-2.86-3.85-14.96-1.93-30.23,5.36-43.84,8.61-13.4,20.49-21.93,35.92-25.98,3.14-.66,6.12-.93,9.3-1.19Z"/>
    <path class="cls-5" d="M321.47,328.5c2.83,1.29,4.89,2.64,7.08,4.84q.88.87,1.78,1.76c.63.64,1.27,1.28,1.92,1.94.68.68,1.36,1.36,2.06,2.06,2.29,2.28,4.57,4.57,6.84,6.86,1.64,1.64,3.27,3.27,4.91,4.91,4.45,4.45,8.89,8.9,13.33,13.35,4.64,4.65,9.28,9.3,13.93,13.94,7.79,7.8,15.59,15.6,23.37,23.41,8.02,8.04,16.05,16.08,24.07,24.11.49.5.99.99,1.5,1.5,2.48,2.48,4.96,4.97,7.45,7.45,20.59,20.61,41.18,41.23,61.76,61.86-1.66,3.52-3.57,5.8-6.35,8.55-.85.84-1.7,1.69-2.58,2.56-.89.87-1.78,1.75-2.7,2.64-.9.89-1.79,1.78-2.72,2.69-2.21,2.19-4.43,4.38-6.66,6.56-2.83-1.29-4.89-2.64-7.08-4.84-.59-.58-1.17-1.16-1.78-1.76-.63-.64-1.27-1.28-1.92-1.94-.68-.68-1.36-1.36-2.06-2.06-2.29-2.28-4.57-4.57-6.84-6.86-1.64-1.64-3.27-3.27-4.91-4.91-4.45-4.45-8.89-8.9-13.33-13.35-4.64-4.65-9.28-9.3-13.93-13.94-7.79-7.8-15.59-15.6-23.37-23.41-8.02-8.04-16.05-16.08-24.07-24.11-.49-.5-.99-.99-1.5-1.5-2.48-2.48-4.96-4.97-7.45-7.45-20.59-20.61-41.18-41.23-61.76-61.86,1.66-3.52,3.57-5.8,6.35-8.55.85-.84,1.7-1.69,2.58-2.56.89-.87,1.78-1.75,2.7-2.64.9-.89,1.79-1.78,2.72-2.69,2.21-2.19,4.43-4.38,6.66-6.56Z"/>
    <path d="M1006.47,2.5h101v29h-71v28h43v29h-43v57h-30V2.5Z"/>
    <path d="M751.47,2.5h115v29h-42v114h-30V31.5h-43V2.5Z"/>
    <path d="M873.47,2.5h115v29h-43v114h-29V31.5h-43V2.5Z"/>
    <path d="M1656.47,2.5h30v114h71v29h-101V2.5Z"/>
    <path d="M288.47,9.5c8.69,6.91,13.43,16.3,16,27,1.32,13.8-1.17,25.58-9.8,36.56-8.01,8.88-18.25,14.34-30.2,15.44-12.16.26-23.1-2.23-32.44-10.31-9.78-9.62-15.22-19.89-15.81-33.81.19-12.84,5.41-23.54,14.02-32.8,16.39-15.24,40.63-14.74,58.23-2.07Z"/>
    <path class="cls-10" d="M1359.47,772.5q20,0,23.81,3.74c.78,1.73,1.5,3.49,2.19,5.26,1.11,1.95,2.25,3.88,3.41,5.79,1.22,2.13,2.44,4.26,3.65,6.39,6.86,12.01,13.9,23.9,20.94,35.81.33-18.81.66-37.62,1-57h18v91h-20c-.97-1.68-1.93-3.36-2.93-5.09q-9.22-16.02-18.57-31.95c-3.91-6.61-7.69-13.28-11.5-19.96-.33,18.81-.66,37.62-1,57h-19v-91Z"/>
    <path d="M704.47,2.5h29v143h-29V2.5Z"/>
    <path class="cls-4" d="M1402.47,566.5h63v20h-44v17h30v19h-30v17h44v19h-63v-92Z"/>
    <path class="cls-4" d="M1133.47,566.5h63v20h-44v17h30v19h-30v17h44v19h-63v-92Z"/>
    <path class="cls-10" d="M1548.53,772.27c.98,0,1.96,0,2.97,0,1.05.01,2.09.02,3.17.03q1.62,0,3.27,0c3.44.01,6.89.04,10.33.06,2.34.01,4.68.02,7.01.03,5.72.02,11.45.06,17.17.1v18c-1.31,0-2.61.02-3.96.03-4.86.04-9.71.11-14.56.18-2.1.03-4.2.05-6.3.06-3.02.02-6.04.07-9.06.12-.94,0-1.87,0-2.84,0-4.28.1-6.66.23-10.37,2.52-2.06,2.26-2.57,3.08-2.47,6.09,0,.66,0,1.32,0,2,.83,2.92,2.23,4.1,4.57,6q2.84.58,5.98.47,1.75.02,3.53.04c2.43,0,4.86-.02,7.3-.02,10.37.13,17.77,2.28,25.4,9.48,5.72,6.47,7.72,13.13,7.34,21.71-1.22,7.46-4.47,14.1-10.42,18.88-7.28,5.06-14.37,5.87-22.97,5.73-1.01,0-2.02,0-3.06-.01-3.2-.02-6.4-.05-9.6-.09-2.18-.02-4.36-.03-6.54-.04-5.32-.03-10.64-.08-15.96-.15v-18c1.28,0,2.55-.02,3.87-.03,4.74-.04,9.49-.11,14.23-.18,2.05-.03,4.1-.05,6.15-.06,2.95-.02,5.9-.07,8.85-.12q1.37,0,2.77,0c4.22-.1,6.54-.25,10.2-2.5,2.21-2.42,2.58-3.43,2.48-6.67,0-.76,0-1.53,0-2.32-.79-2.95-1.97-3.57-4.57-5.12q-2.85-.44-5.98-.37c-1.16-.02-2.33-.03-3.53-.05-2.43,0-4.86-.01-7.3-.02-10.52-.17-17.7-2.44-25.47-9.63-5.56-6.23-7.23-13.69-7.12-21.86,1.01-7.81,4.87-14.29,10.96-19.2,4.62-3.31,8.78-5.13,14.5-5.1Z"/>
    <path class="cls-7" d="M1451.47,772.5h63v18h-44v18h30v19h-30v18h44v18h-63v-91Z"/>
    <path class="cls-7" d="M1167.47,772.5h63v18h-44v18h30v19h-30v18h44v18h-63v-91Z"/>
    <path class="cls-10" d="M1078.47,772.5h21c1.94,5.18,3.74,10.2,5.34,15.47.21.69.42,1.37.63,2.08.44,1.44.87,2.89,1.31,4.33.65,2.16,1.31,4.31,1.96,6.46q7.76,25.59,7.76,29.66h2c.11-.59.21-1.18.32-1.79,1.25-6.61,2.96-12.99,4.9-19.43.31-1.03.61-2.05.93-3.11.64-2.15,1.28-4.3,1.93-6.45.99-3.3,1.97-6.61,2.96-9.91.63-2.09,1.25-4.19,1.88-6.28q.44-1.49.89-3c.27-.91.55-1.82.83-2.75.24-.8.48-1.61.73-2.43q.64-1.84,1.64-2.84c1.56-.09,3.13-.11,4.69-.1.94,0,1.89,0,2.86,0,.99,0,1.99.02,3.01.03,1,0,1.99,0,3.02.01,2.47.01,4.94.03,7.42.05-2.03,7.78-4.38,15.4-6.95,23.01-.38,1.12-.75,2.25-1.14,3.41-1.2,3.57-2.4,7.14-3.6,10.71-1.57,4.67-3.13,9.34-4.7,14.01-.38,1.14-.77,2.29-1.16,3.46-3.09,9.25-6.08,18.54-8.99,27.84-.31.98-.62,1.96-.94,2.97-.27.86-.54,1.73-.82,2.62q-.7,1.97-1.7,2.97c-1.34.09-2.69.11-4.04.1-.81,0-1.62,0-2.45,0-.85,0-1.7-.02-2.58-.03-.85,0-1.71,0-2.59-.01-2.12-.01-4.23-.03-6.35-.05-3.02-6.58-5.19-13.41-7.42-20.29-.43-1.31-.85-2.61-1.28-3.92-1.12-3.44-2.25-6.88-3.37-10.32-1.77-5.44-3.55-10.88-5.33-16.33-.65-1.98-1.29-3.96-1.94-5.95-1.93-5.93-3.88-11.86-5.87-17.77-.33-.98-.66-1.97-1-2.98-.61-1.8-1.22-3.6-1.83-5.4q-1.97-5.83-1.97-8.05Z"/>
    <path class="cls-1" d="M999.47,772.5h18c.04,2.07.07,4.15.11,6.28.05,2.03.1,4.06.15,6.1.03,1.4.06,2.8.08,4.2q-.02,12.51,5.31,23.51c4.81,3.67,8.61,4.73,14.66,4.36,4.05-.68,7.58-1.69,10.68-4.45,3.36-5.03,4.6-8.81,4.61-14.9.02-.72.03-1.45.05-2.19.05-2.28.07-4.56.09-6.85.03-1.56.06-3.12.09-4.67.08-3.8.12-7.59.16-11.39h19c.09,4.48.17,8.96.22,13.44.02,1.52.05,3.04.08,4.56.29,12.76-.77,23.86-9.37,34.03-4.25,4.34-9,8.28-14.93,9.97h-3v29h-19v-29c-1.98-.33-3.96-.66-6-1-8.49-4.09-15.48-11.04-19.21-19.66-2.76-7.99-2.21-16.18-2.04-24.52.02-1.64.04-3.27.05-4.91.04-3.97.12-7.93.2-11.9Z"/>
    <path class="cls-4" d="M1317.47,566.5h73v20h-27v72h-19v-72h-27v-20Z"/>
    <path class="cls-4" d="M1210.47,566.5h19v73h46v19h-65v-92Z"/>
    <path class="cls-1" d="M1245.47,772.5h19v73h45v18h-64v-91Z"/>
    <path class="cls-4" d="M1286.47,566.5h19v92h-19v-92Z"/>
    <path class="cls-3" d="M1321.47,772.5h19v91h-19v-91Z"/>
    <path class="cls-2" d="M155.47,408.5c3.47,1.49,5.69,3.46,8.33,6.13.8.81,1.6,1.61,2.42,2.44.82.84,1.65,1.68,2.5,2.55.84.85,1.68,1.7,2.55,2.57,2.07,2.1,4.14,4.2,6.2,6.3-1.51,3.57-3.61,5.84-6.35,8.55-.85.84-1.7,1.69-2.58,2.56-.89.87-1.78,1.75-2.7,2.64-.9.89-1.79,1.78-2.72,2.69-2.21,2.19-4.43,4.38-6.66,6.56-3.47-1.49-5.69-3.46-8.33-6.13-.8-.81-1.6-1.61-2.42-2.44q-1.24-1.26-2.5-2.55c-.84-.85-1.68-1.7-2.55-2.57-2.07-2.1-4.14-4.2-6.2-6.3,1.51-3.57,3.61-5.84,6.35-8.55.85-.84,1.7-1.69,2.58-2.56.89-.87,1.78-1.75,2.7-2.64.9-.89,1.79-1.78,2.72-2.69,2.21-2.19,4.43-4.38,6.66-6.56Z"/>
    <path class="cls-2" d="M250.47,313.5c3.47,1.49,5.69,3.46,8.33,6.13.8.81,1.6,1.61,2.42,2.44.82.84,1.65,1.68,2.5,2.55.84.85,1.68,1.7,2.55,2.57,2.07,2.1,4.14,4.2,6.2,6.3-1.51,3.57-3.61,5.84-6.35,8.55-.85.84-1.7,1.69-2.58,2.56-.89.87-1.78,1.75-2.7,2.64-.9.89-1.79,1.78-2.72,2.69-2.21,2.19-4.43,4.38-6.66,6.56-3.47-1.49-5.69-3.46-8.33-6.13-.8-.81-1.6-1.61-2.42-2.44q-1.24-1.26-2.5-2.55c-.84-.85-1.68-1.7-2.55-2.57-2.07-2.1-4.14-4.2-6.2-6.3,1.51-3.57,3.61-5.84,6.35-8.55.85-.84,1.7-1.69,2.58-2.56.89-.87,1.78-1.75,2.7-2.64.9-.89,1.79-1.78,2.72-2.69,2.21-2.19,4.43-4.38,6.66-6.56Z"/>
    <path class="cls-2" d="M306.47,257.5c3.47,1.49,5.69,3.46,8.33,6.13.8.81,1.6,1.61,2.42,2.44.82.84,1.65,1.68,2.5,2.55.84.85,1.68,1.7,2.55,2.57,2.07,2.1,4.14,4.2,6.2,6.3-1.51,3.57-3.61,5.84-6.35,8.55-.85.84-1.7,1.69-2.58,2.56-.89.87-1.78,1.75-2.7,2.64-.9.89-1.79,1.78-2.72,2.69-2.21,2.19-4.43,4.38-6.66,6.56-3.47-1.49-5.69-3.46-8.33-6.13-.8-.81-1.6-1.61-2.42-2.44q-1.24-1.26-2.5-2.55c-.84-.85-1.68-1.7-2.55-2.57-2.07-2.1-4.14-4.2-6.2-6.3,1.51-3.57,3.61-5.84,6.35-8.55.85-.84,1.7-1.69,2.58-2.56.89-.87,1.78-1.75,2.7-2.64.9-.89,1.79-1.78,2.72-2.69,2.21-2.19,4.43-4.38,6.66-6.56Z"/>
    <path class="cls-2" d="M402.46,163.49c2.69,1.36,4.44,3.11,6.55,5.26.84.85,1.69,1.71,2.56,2.59.87.9,1.75,1.8,2.64,2.72.89.9,1.78,1.8,2.69,2.73,2.19,2.23,4.38,4.46,6.56,6.71-4.53,5.44-9.34,10.46-14.38,15.44-.74.73-1.47,1.46-2.23,2.22-1.8,1.78-3.59,3.57-5.39,5.35-5-4.22-9.82-8.55-14.5-13.12-.64-.61-1.29-1.21-1.95-1.84-.6-.59-1.21-1.18-1.83-1.79-.55-.53-1.09-1.05-1.66-1.6q-1.06-1.64-.99-3.56c2.12-4.77,6.59-8.26,10.24-11.9.87-.9,1.74-1.79,2.63-2.72.84-.84,1.68-1.68,2.54-2.55.77-.78,1.54-1.55,2.33-2.35q2.18-1.57,4.18-1.58Z"/>
    <path class="cls-8" d="M206.48,359.51c4.49,2.23,7.8,6.29,11.3,9.8.85.82,1.7,1.64,2.57,2.49.8.79,1.59,1.59,2.42,2.41.73.73,1.47,1.45,2.22,2.2q1.48,2.09,1.49,4.06c-1.39,2.8-3.25,4.61-5.48,6.8-.9.89-1.8,1.78-2.72,2.7-.95.92-1.89,1.84-2.87,2.79-.96.94-1.92,1.89-2.88,2.84-2.35,2.31-4.7,4.62-7.06,6.91-5-4.22-9.82-8.55-14.5-13.12-.64-.61-1.29-1.21-1.95-1.84-.6-.59-1.21-1.18-1.83-1.79-.55-.53-1.09-1.05-1.66-1.6q-1.06-1.64-.99-3.56c2.12-4.77,6.59-8.26,10.24-11.9.87-.9,1.74-1.79,2.63-2.72.84-.84,1.68-1.68,2.54-2.55.77-.78,1.54-1.55,2.33-2.35q2.18-1.57,4.19-1.56Z"/>
    <path class="cls-8" d="M353.46,212.49c2.69,1.36,4.44,3.11,6.55,5.26.84.85,1.69,1.71,2.56,2.59.87.9,1.75,1.8,2.64,2.72.89.9,1.78,1.8,2.69,2.73,2.19,2.23,4.38,4.46,6.56,6.71-4.36,5.19-8.88,10.16-13.62,15-.65.69-1.31,1.38-1.98,2.1-.64.65-1.27,1.3-1.93,1.96-.57.59-1.14,1.18-1.73,1.79q-1.74,1.15-3.68,1.08c-4.57-2.06-7.88-6.24-11.37-9.74-.85-.82-1.7-1.64-2.57-2.49-.8-.79-1.59-1.59-2.42-2.41-.73-.73-1.47-1.45-2.22-2.2q-1.48-2.09-1.46-4.07c2.3-4.7,6.64-8.18,10.3-11.83.87-.9,1.74-1.79,2.63-2.72.84-.84,1.68-1.68,2.54-2.55.77-.78,1.54-1.55,2.33-2.35q2.18-1.57,4.18-1.58Z"/>
  </g>
</svg>